<svg xmlns="http://www.w3.org/2000/svg" width="120" height="120" viewBox="0 0 120 120" fill="none">
    <path fill-rule="evenodd" clip-rule="evenodd" d="M60 120C93.1371 120 120 93.1371 120 60C120 26.8629 93.1371 0 60 0C26.8629 0 0 26.8629 0 60C0 93.1371 26.8629 120 60 120ZM50.6963 43.2779C50.1578 42.9318 49.4733 42.9072 48.9114 43.214C48.3495 43.5208 48 44.1098 48 44.75V76.25C48 76.8902 48.3495 77.4792 48.9114 77.786C49.4733 78.0928 50.1578 78.0682 50.6963 77.7221L75.1963 61.9721C75.6972 61.6501 76 61.0955 76 60.5C76 59.9045 75.6972 59.3499 75.1963 59.0279L50.6963 43.2779Z" fill="white"/>
</svg>